<svg width="36px" height="37px" viewBox="0 0 36 37" fill="none" xmlns="http://www.w3.org/2000/svg" transform="rotate(0) scale(1, 1)"><g id="Frame" clip-path="url(#clip0_11081_131809)"><path id="Vector" d="M6 8.21875C6 7.82093 6.15804 7.43939 6.43934 7.15809C6.72064 6.87679 7.10218 6.71875 7.5 6.71875H13.5C13.8978 6.71875 14.2794 6.87679 14.5607 7.15809C14.842 7.43939 15 7.82093 15 8.21875V14.2188C15 14.6166 14.842 14.9981 14.5607 15.2794C14.2794 15.5607 13.8978 15.7188 13.5 15.7188H7.5C7.10218 15.7188 6.72064 15.5607 6.43934 15.2794C6.15804 14.9981 6 14.6166 6 14.2188V8.21875Z" stroke="#ffffff" stroke-width="2" stroke-linecap="round" stroke-linejoin="round"/><path id="Vector_2" d="M21 8.21875C21 7.82093 21.158 7.43939 21.4393 7.15809C21.7206 6.87679 22.1022 6.71875 22.5 6.71875H28.5C28.8978 6.71875 29.2794 6.87679 29.5607 7.15809C29.842 7.43939 30 7.82093 30 8.21875V14.2188C30 14.6166 29.842 14.9981 29.5607 15.2794C29.2794 15.5607 28.8978 15.7188 28.5 15.7188H22.5C22.1022 15.7188 21.7206 15.5607 21.4393 15.2794C21.158 14.9981 21 14.6166 21 14.2188V8.21875Z" stroke="#ffffff" stroke-width="2" stroke-linecap="round" stroke-linejoin="round"/><path id="Vector_3" d="M6 23.2188C6 22.8209 6.15804 22.4394 6.43934 22.1581C6.72064 21.8768 7.10218 21.7188 7.5 21.7188H13.5C13.8978 21.7188 14.2794 21.8768 14.5607 22.1581C14.842 22.4394 15 22.8209 15 23.2188V29.2188C15 29.6166 14.842 29.9981 14.5607 30.2794C14.2794 30.5607 13.8978 30.7188 13.5 30.7188H7.5C7.10218 30.7188 6.72064 30.5607 6.43934 30.2794C6.15804 29.9981 6 29.6166 6 29.2188V23.2188Z" stroke="#ffffff" stroke-width="2" stroke-linecap="round" stroke-linejoin="round"/><path id="Vector_4" d="M21 23.2188C21 22.8209 21.158 22.4394 21.4393 22.1581C21.7206 21.8768 22.1022 21.7188 22.5 21.7188H28.5C28.8978 21.7188 29.2794 21.8768 29.5607 22.1581C29.842 22.4394 30 22.8209 30 23.2188V29.2188C30 29.6166 29.842 29.9981 29.5607 30.2794C29.2794 30.5607 28.8978 30.7188 28.5 30.7188H22.5C22.1022 30.7188 21.7206 30.5607 21.4393 30.2794C21.158 29.9981 21 29.6166 21 29.2188V23.2188Z" stroke="#ffffff" stroke-width="2" stroke-linecap="round" stroke-linejoin="round"/></g><defs><clipPath id="clip0_11081_131809"><rect width="36" height="36" fill="#ffffff" transform="translate(0 0.71875)"/></clipPath></defs></svg>