<svg width="36px" height="37px" viewBox="0 0 36 37" fill="none" xmlns="http://www.w3.org/2000/svg" transform="rotate(0) scale(1, 1)"><g id="Frame" clip-path="url(#clip0_11081_131839)"><path id="Vector" d="M18.0002 4.71875C21.504 7.81861 26.0769 9.4326 30.7502 9.21875C31.4306 11.5333 31.6388 13.961 31.3624 16.3575C31.086 18.7541 30.3307 21.0707 29.1413 23.1695C27.952 25.2684 26.3528 27.1068 24.4389 28.5755C22.525 30.0441 20.3354 31.1131 18.0002 31.7188C15.6651 31.1131 13.4755 30.0441 11.5616 28.5755C9.64765 27.1068 8.0485 25.2684 6.85913 23.1695C5.66976 21.0707 4.91444 18.7541 4.63805 16.3575C4.36167 13.961 4.56985 11.5333 5.25024 9.21875C9.92353 9.4326 14.4965 7.81861 18.0002 4.71875Z" stroke="#ffffff" stroke-width="2" stroke-linecap="round" stroke-linejoin="round"/><path id="Vector_2" d="M16.5 16.7188C16.5 17.1166 16.658 17.4981 16.9393 17.7794C17.2206 18.0607 17.6022 18.2188 18 18.2188C18.3978 18.2188 18.7794 18.0607 19.0607 17.7794C19.342 17.4981 19.5 17.1166 19.5 16.7188C19.5 16.3209 19.342 15.9394 19.0607 15.6581C18.7794 15.3768 18.3978 15.2188 18 15.2188C17.6022 15.2188 17.2206 15.3768 16.9393 15.6581C16.658 15.9394 16.5 16.3209 16.5 16.7188Z" stroke="#ffffff" stroke-width="2" stroke-linecap="round" stroke-linejoin="round"/><path id="Vector_3" d="M18 18.2188V21.9688" stroke="#ffffff" stroke-width="2" stroke-linecap="round" stroke-linejoin="round"/></g><defs><clipPath id="clip0_11081_131839"><rect width="36" height="36" fill="#ffffff" transform="translate(0 0.21875)"/></clipPath></defs></svg>