<svg xmlns="http://www.w3.org/2000/svg" xmlns:xlink="http://www.w3.org/1999/xlink" width="149.806" height="44.387" viewBox="0 0 149.806 44.387">
  <defs>
    <clipPath id="clip-path">
      <rect id="Rectangle_149127" data-name="Rectangle 149127" width="149.806" height="44.387" transform="translate(-0.195 0.211)" fill="none"/>
    </clipPath>
  </defs>
  <g id="btn_ios" transform="translate(0.195 -0.211)" clip-path="url(#clip-path)">
    <g id="Group_165328" data-name="Group 165328" transform="translate(-0.195 -53.789)">
      <path id="Path_89295" data-name="Path 89295" d="M144.257,44.386H5.549A5.565,5.565,0,0,1,0,38.838V5.548A5.565,5.565,0,0,1,5.549,0H144.257a5.565,5.565,0,0,1,5.548,5.549v33.29a5.565,5.565,0,0,1-5.548,5.548" transform="translate(0 54)" fill="#040504"/>
      <path id="Path_89296" data-name="Path 89296" d="M144.257.887a4.666,4.666,0,0,1,4.661,4.661v33.29a4.666,4.666,0,0,1-4.661,4.661H5.549A4.666,4.666,0,0,1,.888,38.839V5.548A4.666,4.666,0,0,1,5.549.887Zm0-.887H5.549A5.565,5.565,0,0,0,0,5.548v33.29a5.565,5.565,0,0,0,5.549,5.549H144.257a5.565,5.565,0,0,0,5.548-5.549V5.548A5.565,5.565,0,0,0,144.257,0" transform="translate(0 54)" fill="#969595"/>
    </g>
    <g id="Group_165327" data-name="Group 165327" transform="translate(8.74 -1.152)">
      <path id="Path_2823" data-name="Path 2823" d="M56.319,62.931a5.492,5.492,0,0,1,2.615-4.608,5.621,5.621,0,0,0-4.429-2.394c-1.864-.2-3.67,1.115-4.619,1.115-.968,0-2.43-1.1-4-1.063a5.9,5.9,0,0,0-4.963,3.027c-2.146,3.716-.546,9.176,1.51,12.18,1.029,1.471,2.231,3.114,3.8,3.055,1.539-.064,2.114-.981,3.972-.981,1.841,0,2.38.981,3.985.944,1.651-.027,2.692-1.477,3.685-2.962a12.168,12.168,0,0,0,1.685-3.432,5.306,5.306,0,0,1-3.239-4.882" transform="translate(-28.834 -40.404)" fill="#fff"/>
      <path id="Path_2824" data-name="Path 2824" d="M78.745,38.765a5.406,5.406,0,0,0,1.237-3.873,5.5,5.5,0,0,0-3.559,1.842,5.145,5.145,0,0,0-1.269,3.73,4.548,4.548,0,0,0,3.592-1.7" transform="translate(-54.291 -25.215)" fill="#fff"/>
      <path id="Path_2825" data-name="Path 2825" d="M146.492,82.391h-5.253l-1.261,3.725h-2.225l4.975-13.78h2.312l4.975,13.78h-2.263Zm-4.708-1.719h4.164l-2.053-6.045h-.057Z" transform="translate(-99.55 -52.275)" fill="#fff"/>
      <path id="Path_2826" data-name="Path 2826" d="M196.049,90.547c0,3.122-1.671,5.128-4.193,5.128a3.406,3.406,0,0,1-3.161-1.758h-.048v4.976h-2.062V85.523h2v1.671h.038a3.564,3.564,0,0,1,3.2-1.776c2.55,0,4.231,2.016,4.231,5.129m-2.12,0c0-2.034-1.051-3.371-2.655-3.371-1.576,0-2.635,1.365-2.635,3.371,0,2.024,1.06,3.38,2.635,3.38,1.6,0,2.655-1.327,2.655-3.38" transform="translate(-134.84 -61.729)" fill="#fff"/>
      <path id="Path_2827" data-name="Path 2827" d="M235.921,90.547c0,3.122-1.671,5.128-4.193,5.128a3.405,3.405,0,0,1-3.161-1.758h-.048v4.976h-2.062V85.523h2v1.671h.038a3.564,3.564,0,0,1,3.2-1.776c2.55,0,4.231,2.016,4.231,5.129m-2.12,0c0-2.034-1.051-3.371-2.655-3.371-1.576,0-2.635,1.365-2.635,3.371,0,2.024,1.06,3.38,2.635,3.38,1.6,0,2.655-1.327,2.655-3.38" transform="translate(-163.653 -61.729)" fill="#fff"/>
      <path id="Path_2828" data-name="Path 2828" d="M281.433,81.677c.153,1.366,1.48,2.264,3.294,2.264,1.738,0,2.989-.9,2.989-2.129,0-1.07-.754-1.71-2.54-2.149l-1.786-.43c-2.53-.611-3.705-1.795-3.705-3.715,0-2.378,2.072-4.011,5.014-4.011,2.912,0,4.908,1.633,4.975,4.011h-2.082c-.125-1.375-1.261-2.205-2.922-2.205s-2.8.84-2.8,2.062c0,.974.726,1.548,2.5,1.986l1.518.373c2.827.669,4,1.8,4,3.82,0,2.578-2.054,4.193-5.32,4.193-3.056,0-5.119-1.577-5.253-4.069Z" transform="translate(-201.857 -51.676)" fill="#fff"/>
      <path id="Path_2829" data-name="Path 2829" d="M324.286,77.224V79.6H326.2v1.633h-1.911v5.539c0,.86.382,1.261,1.222,1.261a6.4,6.4,0,0,0,.678-.048V89.61a5.666,5.666,0,0,1-1.145.1c-2.034,0-2.827-.764-2.827-2.713V81.235h-1.461V79.6h1.461V77.224Z" transform="translate(-231.799 -55.807)" fill="#fff"/>
      <path id="Path_2830" data-name="Path 2830" d="M344.37,90.5c0-3.161,1.862-5.148,4.765-5.148S353.9,87.338,353.9,90.5s-1.843,5.148-4.766,5.148-4.765-1.978-4.765-5.148m7.43,0c0-2.168-.994-3.448-2.665-3.448s-2.663,1.29-2.663,3.448c0,2.177.993,3.447,2.663,3.447s2.665-1.27,2.665-3.447" transform="translate(-248.866 -61.681)" fill="#fff"/>
      <path id="Path_2831" data-name="Path 2831" d="M384.867,85.523h1.967v1.71h.048a2.4,2.4,0,0,1,2.417-1.815,3.194,3.194,0,0,1,.706.077v1.929a2.875,2.875,0,0,0-.926-.125,2.078,2.078,0,0,0-2.149,2.312V95.57h-2.062Z" transform="translate(-278.132 -61.729)" fill="#fff"/>
      <path id="Path_2832" data-name="Path 2832" d="M414.062,92.57c-.277,1.824-2.054,3.076-4.326,3.076-2.923,0-4.737-1.958-4.737-5.1s1.824-5.2,4.65-5.2c2.779,0,4.527,1.909,4.527,4.956v.707h-7.1v.125a2.617,2.617,0,0,0,2.7,2.846,2.273,2.273,0,0,0,2.32-1.413Zm-6.971-3h5.023a2.416,2.416,0,0,0-2.464-2.55,2.543,2.543,0,0,0-2.559,2.55" transform="translate(-292.681 -61.681)" fill="#fff"/>
      <path id="Path_2833" data-name="Path 2833" d="M145.122,34.935c1.964,0,3.115,1.207,3.115,3.29,0,2.115-1.143,3.331-3.115,3.331H142.73V34.935Zm-1.363,5.685h1.248a2.082,2.082,0,0,0,2.184-2.381,2.088,2.088,0,0,0-2.184-2.368h-1.248Z" transform="translate(-103.146 -25.247)" fill="#fff"/>
      <path id="Path_2834" data-name="Path 2834" d="M166.776,43.037a2.367,2.367,0,1,1,4.713,0,2.367,2.367,0,1,1-4.713,0m3.7,0c0-1.083-.486-1.716-1.341-1.716s-1.339.633-1.339,1.716.482,1.72,1.339,1.72,1.341-.633,1.341-1.72" transform="translate(-120.524 -29.228)" fill="#fff"/>
      <path id="Path_2835" data-name="Path 2835" d="M191.89,45.789h-1.023l-1.033-3.68h-.078l-1.028,3.68h-1.013l-1.377-5h1l.895,3.813h.074l1.027-3.813h.946l1.028,3.813h.078l.891-3.813h.986Z" transform="translate(-134.66 -29.479)" fill="#fff"/>
      <path id="Path_2836" data-name="Path 2836" d="M215.483,40.541h.949v.794h.074a1.5,1.5,0,0,1,1.491-.89,1.625,1.625,0,0,1,1.73,1.859v3.235h-.986V42.55c0-.8-.349-1.2-1.078-1.2a1.146,1.146,0,0,0-1.193,1.266v2.923h-.986Z" transform="translate(-155.723 -29.228)" fill="#fff"/>
      <rect id="Rectangle_6308" data-name="Rectangle 6308" width="0.986" height="6.947" transform="translate(65.575 9.362)" fill="#fff"/>
      <path id="Path_2837" data-name="Path 2837" d="M244.95,43.037a2.367,2.367,0,1,1,4.713,0,2.368,2.368,0,1,1-4.713,0m3.7,0c0-1.083-.486-1.716-1.341-1.716s-1.339.633-1.339,1.716.482,1.72,1.339,1.72,1.341-.633,1.341-1.72" transform="translate(-177.018 -29.228)" fill="#fff"/>
      <path id="Path_2838" data-name="Path 2838" d="M265.688,44.125c0-.9.67-1.418,1.859-1.492l1.353-.078v-.432c0-.528-.349-.826-1.023-.826-.551,0-.932.2-1.041.555h-.955c.1-.858.908-1.409,2.041-1.409,1.253,0,1.959.623,1.959,1.679v3.414h-.949v-.7h-.078a1.682,1.682,0,0,1-1.5.785,1.509,1.509,0,0,1-1.666-1.5M268.9,43.7V43.28l-1.22.078c-.688.046-1,.28-1,.721s.39.712.926.712A1.178,1.178,0,0,0,268.9,43.7" transform="translate(-192.005 -29.229)" fill="#fff"/>
      <path id="Path_2839" data-name="Path 2839" d="M285.484,38.206c0-1.579.812-2.579,2.074-2.579a1.646,1.646,0,0,1,1.532.877h.074V33.759h.986v6.947h-.945v-.79h-.078a1.735,1.735,0,0,1-1.569.872c-1.271,0-2.074-1-2.074-2.583m1.019,0c0,1.06.5,1.7,1.335,1.7s1.345-.647,1.345-1.693-.519-1.7-1.345-1.7-1.335.642-1.335,1.693" transform="translate(-206.311 -24.396)" fill="#fff"/>
      <path id="Path_2840" data-name="Path 2840" d="M317.022,43.037a2.367,2.367,0,1,1,4.713,0,2.367,2.367,0,1,1-4.713,0m3.7,0c0-1.083-.486-1.716-1.341-1.716s-1.339.633-1.339,1.716.482,1.72,1.339,1.72,1.341-.633,1.341-1.72" transform="translate(-229.103 -29.228)" fill="#fff"/>
      <path id="Path_2841" data-name="Path 2841" d="M338.786,40.541h.949v.794h.074a1.5,1.5,0,0,1,1.491-.89,1.625,1.625,0,0,1,1.73,1.859v3.235h-.986V42.55c0-.8-.349-1.2-1.078-1.2a1.146,1.146,0,0,0-1.193,1.266v2.923h-.986Z" transform="translate(-244.83 -29.228)" fill="#fff"/>
      <path id="Path_2842" data-name="Path 2842" d="M369.54,36.306v1.267h1.083V38.4H369.54v2.569c0,.523.216.752.707.752a3.287,3.287,0,0,0,.376-.023v.821a3.228,3.228,0,0,1-.537.05c-1.1,0-1.533-.386-1.533-1.349V38.4h-.793v-.831h.793V36.306Z" transform="translate(-265.77 -26.237)" fill="#fff"/>
      <path id="Path_2843" data-name="Path 2843" d="M382.941,33.759h.978v2.754H384a1.538,1.538,0,0,1,1.524-.9,1.646,1.646,0,0,1,1.721,1.863v3.226h-.987V37.724c0-.8-.372-1.2-1.069-1.2a1.167,1.167,0,0,0-1.258,1.267v2.918h-.986Z" transform="translate(-276.74 -24.396)" fill="#fff"/>
      <path id="Path_2844" data-name="Path 2844" d="M407.522,44.188a2.029,2.029,0,0,1-2.165,1.445,2.27,2.27,0,0,1-2.308-2.579,2.3,2.3,0,0,1,2.3-2.611c1.39,0,2.229.95,2.229,2.519v.344h-3.528v.055a1.321,1.321,0,0,0,1.331,1.432,1.2,1.2,0,0,0,1.189-.606Zm-3.469-1.61h2.524a1.206,1.206,0,0,0-1.23-1.295,1.278,1.278,0,0,0-1.294,1.295" transform="translate(-291.271 -29.228)" fill="#fff"/>
    </g>
  </g>
</svg>
