<svg xmlns="http://www.w3.org/2000/svg" xmlns:xlink="http://www.w3.org/1999/xlink" width="149.806" height="44.387" viewBox="0 0 149.806 44.387">
  <defs>
    <clipPath id="clip-path">
      <rect id="Rectangle_6312" data-name="Rectangle 6312" width="149.806" height="44.387" fill="none"/>
    </clipPath>
  </defs>
  <g id="btn_android" clip-path="url(#clip-path)">
    <path id="Path_2845" data-name="Path 2845" d="M144.257,44.386H5.549A5.565,5.565,0,0,1,0,38.838V5.548A5.565,5.565,0,0,1,5.549,0H144.257a5.565,5.565,0,0,1,5.548,5.549v33.29a5.565,5.565,0,0,1-5.548,5.548" transform="translate(0 0.001)" fill="#040504"/>
    <path id="Path_2846" data-name="Path 2846" d="M144.257.887a4.666,4.666,0,0,1,4.661,4.661v33.29a4.666,4.666,0,0,1-4.661,4.661H5.549A4.666,4.666,0,0,1,.888,38.839V5.548A4.666,4.666,0,0,1,5.549.887Zm0-.887H5.549A5.565,5.565,0,0,0,0,5.548v33.29a5.565,5.565,0,0,0,5.549,5.549H144.257a5.565,5.565,0,0,0,5.548-5.549V5.548A5.565,5.565,0,0,0,144.257,0" fill="#969595"/>
    <path id="Path_2847" data-name="Path 2847" d="M52.109,77.721,40.295,90.26l0,.008A3.194,3.194,0,0,0,45,92.193l.038-.022,13.3-7.673Z" transform="translate(-29.12 -56.167)" fill="#cc3d23"/>
    <path id="Path_2848" data-name="Path 2848" d="M94.148,61.328l-.011-.007L88.4,57.992l-6.468,5.756,6.491,6.49,5.711-3.295a3.193,3.193,0,0,0,.019-5.615" transform="translate(-59.207 -41.909)" fill="#ffbe1a"/>
    <path id="Path_2849" data-name="Path 2849" d="M40.011,37.12a3.145,3.145,0,0,0-.108.821V60.1a3.084,3.084,0,0,0,.109.82L52.232,48.7Z" transform="translate(-28.837 -26.825)" fill="#0063b0"/>
    <path id="Path_2850" data-name="Path 2850" d="M52.2,42.842l6.114-6.113-13.283-7.7a3.2,3.2,0,0,0-4.733,1.912v0Z" transform="translate(-29.119 -20.647)" fill="#0c9262"/>
    <path id="Path_2851" data-name="Path 2851" d="M172.193,31.22a3,3,0,0,1-.827,2.223,3.228,3.228,0,0,1-2.446.985,3.478,3.478,0,1,1,0-6.955,3.437,3.437,0,0,1,1.367.279,2.747,2.747,0,0,1,1.041.744l-.585.586a2.249,2.249,0,0,0-1.823-.79,2.659,2.659,0,1,0,1.859,4.575,2.1,2.1,0,0,0,.558-1.349H168.92v-.8h3.226a2.826,2.826,0,0,1,.047.5" transform="translate(-119.574 -19.853)" fill="#fff"/>
    <path id="Path_2852" data-name="Path 2852" d="M172.193,31.22a3,3,0,0,1-.827,2.223,3.228,3.228,0,0,1-2.446.985,3.478,3.478,0,1,1,0-6.955,3.437,3.437,0,0,1,1.367.279,2.747,2.747,0,0,1,1.041.744l-.585.586a2.249,2.249,0,0,0-1.823-.79,2.659,2.659,0,1,0,1.859,4.575,2.1,2.1,0,0,0,.558-1.349H168.92v-.8h3.226A2.826,2.826,0,0,1,172.193,31.22Z" transform="translate(-119.574 -19.853)" fill="none" stroke="#fff" stroke-width="0.2"/>
    <path id="Path_2853" data-name="Path 2853" d="M198.048,28.827h-3.032v2.111h2.734v.8h-2.734v2.111h3.032v.818h-3.887V28.009h3.887Z" transform="translate(-140.314 -20.241)" fill="#fff"/>
    <path id="Path_2854" data-name="Path 2854" d="M198.048,28.827h-3.032v2.111h2.734v.8h-2.734v2.111h3.032v.818h-3.887V28.009h3.887Z" transform="translate(-140.314 -20.241)" fill="none" stroke="#fff" stroke-width="0.2"/>
    <path id="Path_2855" data-name="Path 2855" d="M214.109,34.667h-.856v-5.84h-1.859v-.818h4.575v.818h-1.859Z" transform="translate(-152.767 -20.241)" fill="#fff"/>
    <path id="Path_2856" data-name="Path 2856" d="M214.109,34.667h-.856v-5.84h-1.859v-.818h4.575v.818h-1.859Z" transform="translate(-152.767 -20.241)" fill="none" stroke="#fff" stroke-width="0.2"/>
    <rect id="Rectangle_6310" data-name="Rectangle 6310" width="0.855" height="6.658" transform="translate(66.512 7.768)" fill="#fff"/>
    <rect id="Rectangle_6311" data-name="Rectangle 6311" width="0.855" height="6.658" transform="translate(66.512 7.768)" fill="none" stroke="#fff" stroke-width="0.2"/>
    <path id="Path_2857" data-name="Path 2857" d="M249.518,34.667h-.856v-5.84H246.8v-.818h4.575v.818h-1.859Z" transform="translate(-178.357 -20.241)" fill="#fff"/>
    <path id="Path_2858" data-name="Path 2858" d="M249.518,34.667h-.856v-5.84H246.8v-.818h4.575v.818h-1.859Z" transform="translate(-178.357 -20.241)" fill="none" stroke="#fff" stroke-width="0.2"/>
    <path id="Path_2859" data-name="Path 2859" d="M279.253,33.419a3.457,3.457,0,0,1-4.882,0,3.6,3.6,0,0,1,0-4.937,3.446,3.446,0,0,1,4.878,0,3.586,3.586,0,0,1,0,4.933M275,32.861a2.56,2.56,0,0,0,3.617,0,2.837,2.837,0,0,0,0-3.822,2.56,2.56,0,0,0-3.617,0,2.84,2.84,0,0,0,0,3.822" transform="translate(-197.571 -19.853)" fill="#fff"/>
    <path id="Path_2860" data-name="Path 2860" d="M279.253,33.419a3.457,3.457,0,0,1-4.882,0,3.6,3.6,0,0,1,0-4.937,3.446,3.446,0,0,1,4.878,0,3.586,3.586,0,0,1,0,4.933ZM275,32.861a2.56,2.56,0,0,0,3.617,0,2.837,2.837,0,0,0,0-3.822,2.56,2.56,0,0,0-3.617,0,2.84,2.84,0,0,0,0,3.822Z" transform="translate(-197.571 -19.853)" fill="none" stroke="#fff" stroke-width="0.2"/>
    <path id="Path_2861" data-name="Path 2861" d="M302.4,34.667V28.009h1.041l3.236,5.179h.037l-.037-1.283v-3.9h.856v6.658h-.893l-3.385-5.43h-.037l.037,1.283v4.147Z" transform="translate(-218.533 -20.241)" fill="#fff"/>
    <path id="Path_2862" data-name="Path 2862" d="M302.4,34.667V28.009h1.041l3.236,5.179h.037l-.037-1.283v-3.9h.856v6.658h-.893l-3.385-5.43h-.037l.037,1.283v4.147Z" transform="translate(-218.533 -20.241)" fill="none" stroke="#fff" stroke-width="0.2"/>
    <path id="Path_2863" data-name="Path 2863" d="M194.285,73.431a4.72,4.72,0,1,0,4.737,4.72,4.652,4.652,0,0,0-4.737-4.72m0,7.58a2.868,2.868,0,1,1,2.663-2.86,2.73,2.73,0,0,1-2.663,2.86m-10.335-7.58a4.72,4.72,0,1,0,4.737,4.72,4.652,4.652,0,0,0-4.737-4.72m0,7.58a2.868,2.868,0,1,1,2.664-2.86,2.73,2.73,0,0,1-2.664,2.86m-12.294-6.132v2h4.791a4.178,4.178,0,0,1-1.09,2.521,4.905,4.905,0,0,1-3.7,1.466,5.328,5.328,0,0,1,0-10.655,5.106,5.106,0,0,1,3.611,1.43l1.412-1.412a6.985,6.985,0,0,0-5.024-2.02,7.33,7.33,0,1,0,0,14.659,6.7,6.7,0,0,0,5.113-2.056,6.615,6.615,0,0,0,1.734-4.684,6.5,6.5,0,0,0-.107-1.251Zm50.277,1.555a4.386,4.386,0,0,0-4.04-3,4.485,4.485,0,0,0-4.451,4.72,4.619,4.619,0,0,0,4.684,4.72,4.694,4.694,0,0,0,3.933-2.092l-1.609-1.073a2.7,2.7,0,0,1-2.324,1.305,2.4,2.4,0,0,1-2.288-1.43l6.311-2.61ZM215.5,78.008a2.589,2.589,0,0,1,2.467-2.753,1.828,1.828,0,0,1,1.752,1Zm-5.131,4.577h2.074V68.712h-2.074Zm-3.4-8.1H206.9a3.271,3.271,0,0,0-2.485-1.055,4.724,4.724,0,0,0,0,9.439A3.217,3.217,0,0,0,206.9,81.8h.071v.679c0,1.806-.965,2.771-2.521,2.771a2.611,2.611,0,0,1-2.378-1.681l-1.806.751a4.5,4.5,0,0,0,4.183,2.789c2.431,0,4.487-1.43,4.487-4.917V73.717H206.97Zm-2.378,6.525a2.871,2.871,0,0,1,0-5.721,2.883,2.883,0,0,1,0,5.721m27.055-12.3h-4.961V82.584h2.07V77.329h2.891a4.315,4.315,0,1,0,0-8.617M231.7,75.4h-2.945V70.643H231.7a2.378,2.378,0,1,1,0,4.755m12.8-1.992a3.888,3.888,0,0,0-3.695,2.124l1.838.767a1.962,1.962,0,0,1,1.892-1.017,1.994,1.994,0,0,1,2.177,1.785v.143a4.581,4.581,0,0,0-2.16-.535c-1.981,0-4,1.089-4,3.123A3.2,3.2,0,0,0,244,82.847a2.921,2.921,0,0,0,2.642-1.356h.071v1.071h2V77.243c0-2.463-1.838-3.837-4.212-3.837m-.25,7.6c-.678,0-1.624-.339-1.624-1.178,0-1.071,1.178-1.481,2.2-1.481a3.689,3.689,0,0,1,1.892.464,2.51,2.51,0,0,1-2.463,2.2m11.744-7.3-2.374,6.014h-.072l-2.463-6.014h-2.231l3.694,8.406-2.106,4.676h2.16l5.693-13.082Zm-18.65,8.875h2.07V68.712h-2.07Z" transform="translate(-118.676 -49.294)" fill="#fff"/>
  </g>
</svg>
